<?xml version="1.0" standalone="no"?>
<!DOCTYPE svg PUBLIC "-//W3C//DTD SVG 20010904//EN"
 "http://www.w3.org/TR/2001/REC-SVG-20010904/DTD/svg10.dtd">
<svg version="1.0" xmlns="http://www.w3.org/2000/svg"
 width="928.000000pt" height="932.000000pt" viewBox="0 0 928.000000 932.000000"
 preserveAspectRatio="xMidYMid meet">
<metadata>
Created by potrace 1.16, written by Peter Selinger 2001-2019
</metadata>
<g transform="translate(0.000000,932.000000) scale(0.100000,-0.100000)"
fill="#ffffff" stroke="none">
<path d="M26 6743 c-3 -1412 -8 -3500 -11 -4639 l-6 -2072 2578 -6 c1418 -3
3497 -8 4619 -11 l2042 -6 6 1613 c3 887 8 2975 12 4639 l6 3027 -1564 6
c-860 3 -2938 8 -4619 12 l-3057 5 -6 -2568z m4864 2248 c0 -7 24 -11 58 -11
32 0 109 -6 172 -14 444 -56 842 -176 1225 -371 383 -194 625 -373 955 -704
236 -236 372 -405 535 -666 88 -140 214 -385 255 -495 18 -47 50 -132 71 -190
86 -228 162 -541 195 -800 21 -168 30 -633 15 -787 -51 -516 -172 -948 -376
-1340 -326 -623 -723 -1071 -1275 -1437 -199 -132 -502 -297 -517 -282 -4 4
-140 364 -150 396 -3 11 11 23 44 38 68 33 236 127 313 175 355 224 713 569
952 917 132 192 267 442 338 625 13 33 26 65 30 70 15 20 80 234 114 370 224
905 41 1905 -488 2655 -160 228 -430 516 -631 676 -54 43 -107 87 -116 96 -10
9 -57 43 -106 76 -599 401 -1295 593 -2008 552 -387 -22 -691 -90 -1075 -241
-460 -181 -897 -495 -1231 -884 -114 -134 -161 -197 -261 -350 -274 -421 -423
-805 -504 -1300 -35 -217 -45 -597 -19 -815 64 -561 227 -1014 524 -1465 47
-71 89 -137 92 -145 4 -8 41 -57 83 -109 285 -355 650 -655 1047 -861 112 -58
125 -67 119 -85 -5 -11 -38 -99 -75 -195 -36 -96 -71 -180 -77 -187 -8 -10
-38 1 -137 52 -424 216 -834 537 -1132 886 -57 67 -106 126 -108 133 -2 6 -12
18 -23 27 -10 9 -18 19 -18 23 0 4 -33 53 -74 109 -325 452 -560 1032 -641
1582 -55 375 -53 837 6 1180 40 239 140 582 229 791 476 1110 1357 1879 2503
2184 172 46 412 88 567 101 74 6 146 14 160 18 41 12 440 14 440 2z m140
-1525 c157 -26 322 -70 461 -125 94 -36 283 -130 287 -142 2 -5 10 -9 17 -9 8
0 20 -6 27 -13 7 -7 45 -34 84 -59 229 -152 449 -372 611 -613 177 -264 301
-595 354 -950 16 -107 16 -446 0 -565 -86 -638 -441 -1210 -969 -1562 -54 -36
-123 -80 -155 -97 -66 -36 -58 -42 -105 89 -17 47 -47 128 -67 180 -19 52 -37
99 -38 104 -1 5 14 19 33 32 277 183 458 360 607 594 57 88 144 275 182 388
17 51 43 154 58 230 37 189 38 445 4 632 -52 281 -172 556 -339 774 -151 198
-394 400 -619 514 -23 11 -50 26 -60 31 -66 38 -293 110 -408 130 -643 112
-1276 -115 -1697 -609 -192 -225 -334 -526 -390 -825 -32 -170 -32 -456 -1
-632 60 -331 219 -654 439 -892 113 -123 299 -270 449 -356 17 -10 16 -18 -24
-120 -24 -61 -54 -139 -67 -175 -14 -36 -31 -79 -39 -97 l-14 -31 -63 35
c-351 194 -656 495 -860 849 -20 34 -39 72 -43 85 -4 13 -11 26 -14 29 -9 7
-95 219 -126 310 -33 99 -81 330 -95 452 -45 425 47 892 253 1273 310 575 860
988 1487 1119 80 16 255 43 330 50 106 10 360 -5 510 -28z m140 -3393 c0
-1066 -3 -2278 -7 -2693 l-6 -755 -416 2 -416 3 4 2050 4 2050 -326 0 -327 0
0 299 0 298 98 7 c258 18 422 77 562 203 103 92 161 194 261 451 l9 22 280 0
280 0 0 -1937z"/>
</g>
</svg>
