<?xml version="1.0" standalone="no"?>
<svg xmlns="http://www.w3.org/2000/svg"
 width="355.000000" height="355.000000" viewBox="0 0 355.000000 355.000000"
 preserveAspectRatio="xMidYMid meet">
<g transform="translate(0.000000,355.000000) scale(0.100000,-0.100000)"
fill="#000000" stroke="none">
<path d="M1630 3280 c-345 -42 -602 -164 -834 -395 -191 -190 -309 -407 -372
-684 -24 -106 -29 -377 -10 -496 20 -117 70 -273 122 -377 121 -242 335 -466
567 -593 38 -21 72 -34 76 -29 9 10 51 121 51 134 0 5 -26 23 -58 40 -84 45
-220 150 -286 221 -235 253 -356 599 -325 926 27 290 145 542 348 744 260 259
593 382 944 349 129 -12 173 -21 282 -57 291 -94 555 -324 698 -608 60 -121
108 -296 121 -447 9 -91 -9 -266 -38 -380 -81 -318 -296 -596 -580 -749 -42
-22 -76 -43 -76 -47 0 -22 46 -142 54 -142 20 0 160 81 239 138 98 71 258 235
325 334 110 163 187 355 218 546 24 145 14 402 -20 538 -97 390 -353 712 -709
893 -218 111 -514 168 -737 141z"/>
<path d="M1631 2730 c-191 -30 -373 -133 -498 -280 -64 -76 -144 -235 -168
-333 -65 -272 11 -549 208 -755 69 -71 194 -159 207 -146 9 10 62 136 57 139
-1 1 -22 15 -47 32 -151 102 -255 270 -281 456 -35 236 81 489 287 626 114 76
210 104 359 104 106 1 130 -3 204 -28 199 -68 353 -222 417 -418 22 -67 27
-101 28 -187 1 -116 -12 -183 -54 -277 -60 -133 -126 -206 -277 -308 -2 -1 9
-36 23 -78 24 -73 27 -76 47 -65 65 34 142 95 211 168 160 171 242 432 207
660 -50 326 -276 582 -591 670 -85 23 -255 34 -339 20z"/>
<path d="M1717 2142 c-37 -106 -132 -176 -256 -188 l-60 -7 -6 -51 c-4 -28 -5
-76 -3 -106 l3 -55 119 -3 119 -3 -8 -749 -7 -750 156 0 156 0 0 268 c0 147 3
588 7 980 l6 712 -104 0 -104 0 -18 -48z"/>
</g>
</svg>
