<svg width="26" height="20" viewBox="0 0 26 20" fill="none" xmlns="http://www.w3.org/2000/svg">
    <path
        d="M22.375 0.151611H3.625C2.79647 0.1525 2.00213 0.482933 1.41627 1.07041C0.830411 1.65788 0.500886 2.45441 0.5 3.28522V16.715C0.500886 17.5458 0.830411 18.3423 1.41627 18.9298C2.00213 19.5173 2.79647 19.8477 3.625 19.8486H22.375C23.2035 19.8477 23.9979 19.5173 24.5837 18.9298C25.1696 18.3423 25.4991 17.5458 25.5 16.715V3.28522C25.4991 2.45441 25.1696 1.65788 24.5837 1.07041C23.9979 0.482933 23.2035 0.1525 22.375 0.151611ZM21.5837 5.33494L13.548 11.6022C13.3913 11.7243 13.1985 11.7906 13 11.7906C12.8015 11.7906 12.6087 11.7243 12.452 11.6022L4.41629 5.33494C4.32188 5.26344 4.24258 5.17385 4.183 5.07135C4.12342 4.96886 4.08474 4.85552 4.06922 4.73791C4.0537 4.6203 4.06165 4.50077 4.0926 4.38626C4.12354 4.27176 4.17688 4.16456 4.2495 4.07091C4.32212 3.97725 4.41257 3.899 4.51561 3.8407C4.61865 3.7824 4.73222 3.74522 4.84971 3.73132C4.96721 3.71741 5.08628 3.72706 5.20003 3.7597C5.31377 3.79234 5.41991 3.84732 5.51228 3.92145L13 9.76116L20.4877 3.92145C20.675 3.77967 20.9103 3.71749 21.1429 3.74835C21.3755 3.77921 21.5866 3.90064 21.7307 4.08637C21.8747 4.27211 21.94 4.50722 21.9125 4.74087C21.885 4.97452 21.7669 5.18793 21.5837 5.33494Z"
        fill="#0087A1" />
</svg>
