<svg width="25" height="25" viewBox="0 0 25 25" fill="none" xmlns="http://www.w3.org/2000/svg">
    <path
        d="M12.5 10.1C13.1365 10.1 13.747 10.3529 14.1971 10.8029C14.6471 11.253 14.9 11.8635 14.9 12.5C14.9005 13.0664 14.7008 13.6147 14.336 14.048L18.14 24.5H15.584L12.5 16.016L9.416 24.5H6.86L10.664 14.048C10.2992 13.6147 10.0995 13.0664 10.1 12.5C10.1 11.8635 10.3529 11.253 10.8029 10.8029C11.253 10.3529 11.8635 10.1 12.5 10.1ZM12.5 7.7C11.227 7.7 10.0061 8.20571 9.10589 9.10589C8.20571 10.0061 7.7 11.227 7.7 12.5C7.7 13.1 7.82 13.7 8.036 14.252L6.98 17.132C5.89502 15.8323 5.30048 14.1931 5.3 12.5C5.3 10.5904 6.05857 8.75909 7.40883 7.40883C8.75909 6.05857 10.5904 5.3 12.5 5.3C14.4096 5.3 16.2409 6.05857 17.5912 7.40883C18.9414 8.75909 19.7 10.5904 19.7 12.5C19.7 14.264 19.064 15.872 18.02 17.132L16.964 14.252C17.18 13.7 17.3 13.1 17.3 12.5C17.3 11.227 16.7943 10.0061 15.8941 9.10589C14.9939 8.20571 13.773 7.7 12.5 7.7ZM12.5 2.9C9.95392 2.9 7.51212 3.91143 5.71178 5.71178C3.91143 7.51212 2.9 9.95392 2.9 12.5C2.9 15.332 4.1 17.9 6.068 19.628L5.204 22.028C3.74133 20.9073 2.55625 19.465 1.74053 17.8127C0.924806 16.1605 0.500339 14.3426 0.5 12.5C0.5 9.3174 1.76428 6.26516 4.01472 4.01472C6.26516 1.76428 9.3174 0.5 12.5 0.5C14.0759 0.5 15.6363 0.810389 17.0922 1.41345C18.5481 2.0165 19.871 2.90042 20.9853 4.01472C22.0996 5.12902 22.9835 6.45189 23.5866 7.9078C24.1896 9.36371 24.5 10.9241 24.5 12.5C24.5 16.376 22.652 19.832 19.796 22.028L18.932 19.628C20.9 17.9 22.1 15.332 22.1 12.5C22.1 9.95392 21.0886 7.51212 19.2882 5.71178C17.4879 3.91143 15.0461 2.9 12.5 2.9Z"
        fill="#02315D" />
</svg>
