<svg width="24" height="25" viewBox="0 0 24 25" fill="none" xmlns="http://www.w3.org/2000/svg">
    <path
        d="M15.15 17.33C15.37 17.55 15.64 17.66 15.96 17.66C16.28 17.66 16.56 17.54 16.8 17.3C17.02 17.08 17.13 16.8 17.13 16.46C17.13 16.12 17.02 15.84 16.8 15.62L13.2 12.02V7.67C13.2 7.33 13.0848 7.05 12.8544 6.83C12.624 6.61 12.3392 6.5 12 6.5C11.66 6.5 11.3748 6.6152 11.1444 6.8456C10.914 7.076 10.7992 7.3608 10.8 7.7V12.47C10.8 12.63 10.83 12.7852 10.89 12.9356C10.95 13.086 11.04 13.2208 11.16 13.34L15.15 17.33ZM12 24.5C10.34 24.5 8.78 24.1848 7.32 23.5544C5.86 22.924 4.59 22.0692 3.51 20.99C2.43 19.91 1.5752 18.64 0.9456 17.18C0.316 15.72 0.0008 14.16 0 12.5C0 10.84 0.3152 9.28 0.9456 7.82C1.576 6.36 2.4308 5.09 3.51 4.01C4.59 2.93 5.86 2.0752 7.32 1.4456C8.78 0.816 10.34 0.5008 12 0.5C13.66 0.5 15.22 0.8152 16.68 1.4456C18.14 2.076 19.41 2.9308 20.49 4.01C21.57 5.09 22.4252 6.36 23.0556 7.82C23.686 9.28 24.0008 10.84 24 12.5C24 14.16 23.6848 15.72 23.0544 17.18C22.424 18.64 21.5692 19.91 20.49 20.99C19.41 22.07 18.14 22.9252 16.68 23.5556C15.22 24.186 13.66 24.5008 12 24.5ZM12 22.1C14.66 22.1 16.9252 21.1652 18.7956 19.2956C20.666 17.426 21.6008 15.1608 21.6 12.5C21.6 9.84 20.6652 7.5748 18.7956 5.7044C16.926 3.834 14.6608 2.8992 12 2.9C9.34 2.9 7.0748 3.8348 5.2044 5.7044C3.334 7.574 2.3992 9.8392 2.4 12.5C2.4 15.16 3.3348 17.4252 5.2044 19.2956C7.074 21.166 9.3392 22.1008 12 22.1Z"
        fill="#404040" />
</svg>
