<svg width="26" height="27" viewBox="0 0 26 27" fill="none" xmlns="http://www.w3.org/2000/svg">
    <path
        d="M23.0235 9.58331L22.5842 9.32364C22.1975 9.1125 21.8722 8.79397 21.643 8.40206C21.6226 8.3677 21.6034 8.33078 21.565 8.2595C21.3063 7.81893 21.1807 7.30511 21.2048 6.78676L21.212 6.24578C21.2265 5.38021 21.2337 4.94489 21.1184 4.55538C21.0165 4.20879 20.8458 3.88935 20.6178 3.61853C20.3609 3.31304 20.0044 3.0941 19.2901 2.65877L18.6971 2.29599C17.9865 1.86194 17.6299 1.64427 17.2518 1.56153C16.9177 1.48819 16.5727 1.49123 16.2398 1.57044C15.8641 1.65955 15.5124 1.88358 14.8101 2.32909L14.8065 2.33163L14.3815 2.60022C14.3143 2.64349 14.2795 2.66386 14.2459 2.68423C13.9122 2.88152 13.54 2.98972 13.1571 3.00245C13.1187 3.005 13.0791 3.005 13.001 3.005L12.845 3.00372C12.4619 2.99093 12.0873 2.88093 11.7526 2.68295C11.719 2.66386 11.6865 2.64222 11.6193 2.59894L11.1908 2.32654C10.4837 1.87594 10.1296 1.65191 9.75143 1.56153C9.4173 1.48215 9.07101 1.47954 8.73586 1.5539C8.35652 1.63791 8.00118 1.85685 7.28932 2.29472L7.28572 2.29599L6.69991 2.65622L6.6939 2.66131C5.98804 3.0941 5.63391 3.31304 5.37942 3.61726C5.15263 3.88761 4.98279 4.20612 4.88124 4.55156C4.76719 4.94234 4.7732 5.37767 4.7876 6.24833L4.79601 6.78804C4.79601 6.87077 4.79961 6.91151 4.79841 6.95097C4.79207 7.41341 4.66716 7.86532 4.43707 8.25823C4.39746 8.32951 4.37945 8.36515 4.35904 8.39825C4.15664 8.74469 3.87875 9.03455 3.54875 9.24345L3.4143 9.32364L2.98094 9.57822C2.25827 10.0021 1.89694 10.2147 1.63524 10.5176C1.40257 10.7847 1.22656 11.1016 1.11905 11.4468C0.999008 11.8376 0.999008 12.2742 1.00021 13.15L1.00261 13.8666C1.00381 14.736 1.00621 15.17 1.12746 15.5583C1.23452 15.9014 1.40925 16.2164 1.64004 16.4824C1.90174 16.7828 2.25947 16.9941 2.97614 17.4167L3.40589 17.67C3.47912 17.7133 3.51633 17.7336 3.55115 17.7566C3.92733 17.9957 4.23456 18.3395 4.43947 18.7507L4.5199 18.9034C4.72267 19.3094 4.81808 19.7659 4.79601 20.2247L4.7876 20.7428C4.7732 21.616 4.76719 22.0538 4.88244 22.4446C4.98447 22.7909 5.15494 23.1104 5.38302 23.3815C5.63992 23.687 5.99765 23.9046 6.71071 24.3412L7.30373 24.704C8.01559 25.1381 8.37092 25.3557 8.74906 25.4385C9.08315 25.5118 9.42814 25.5087 9.76103 25.4296C10.138 25.3405 10.4897 25.1164 11.1944 24.6684L11.6193 24.3985C11.9853 24.1486 12.4086 24.0091 12.8438 23.995H13.1559C13.5376 24.0077 13.9122 24.1185 14.2483 24.3158L14.3587 24.3858L14.8101 24.6735C15.5184 25.1241 15.8713 25.3481 16.2494 25.4372C16.5834 25.5173 16.9297 25.5208 17.265 25.4474C17.6431 25.3634 18.0009 25.1432 18.7127 24.7053L19.3069 24.34C20.0128 23.9046 20.3669 23.687 20.6214 23.3827C20.8495 23.1116 21.0176 22.7934 21.1196 22.4484C21.2337 22.0602 21.2277 21.6287 21.2132 20.7708L21.2036 20.2107C21.1798 19.6932 21.3054 19.1803 21.5638 18.7405L21.6418 18.6005C21.8442 18.254 22.1221 17.9642 22.4521 17.7553L22.5842 17.6776L22.5866 17.6764L23.0199 17.4218C23.7426 16.9966 24.1039 16.7853 24.3668 16.4824C24.5997 16.2151 24.775 15.8969 24.8818 15.5532C25.0018 15.1649 25.0018 14.7296 24.9994 13.8641L24.997 13.1334C24.9958 12.264 24.9946 11.8287 24.8734 11.4405C24.7658 11.0977 24.5906 10.7831 24.3596 10.5176C24.0991 10.2172 23.7414 10.0059 23.0259 9.58458L23.0235 9.58331Z"
        stroke="#404040" stroke-width="2" stroke-linecap="round" stroke-linejoin="round" />
    <path
        d="M8.19775 13.5C8.19775 14.8504 8.70365 16.1455 9.60416 17.1003C10.5047 18.0552 11.726 18.5916 12.9995 18.5916C14.273 18.5916 15.4944 18.0552 16.3949 17.1003C17.2954 16.1455 17.8013 14.8504 17.8013 13.5C17.8013 12.1497 17.2954 10.8546 16.3949 9.89973C15.4944 8.94488 14.273 8.40845 12.9995 8.40845C11.726 8.40845 10.5047 8.94488 9.60416 9.89973C8.70365 10.8546 8.19775 12.1497 8.19775 13.5Z"
        stroke="#404040" stroke-width="2" stroke-linecap="round" stroke-linejoin="round" />
</svg>
