<svg width="25" height="26" viewBox="0 0 25 26" fill="none" xmlns="http://www.w3.org/2000/svg">
    <path
        d="M16.5876 18.7338L18.6384 9.06585C18.7221 8.65662 18.6733 8.36365 18.4919 8.18694C18.3105 8.01023 18.0711 7.97768 17.7734 8.08929L5.71987 12.7349C5.45015 12.8372 5.26646 12.9535 5.16881 13.0837C5.07115 13.2139 5.05952 13.3371 5.13393 13.4534C5.20833 13.5697 5.35714 13.6603 5.58036 13.7254L8.6635 14.6881L15.8203 10.1819C16.0156 10.0517 16.1644 10.0238 16.2667 10.0982C16.3318 10.1447 16.3132 10.2145 16.2109 10.3075L10.4213 15.5391L10.1981 18.7199C10.412 18.7199 10.6213 18.6176 10.8259 18.4129L12.3326 16.9621L15.4576 19.264C16.0528 19.5988 16.4295 19.4221 16.5876 18.7338ZM25 13C25 14.6927 24.6698 16.311 24.0095 17.8549C23.3491 19.3988 22.4609 20.7288 21.3449 21.8449C20.2288 22.9609 18.8988 23.8491 17.3549 24.5095C15.811 25.1698 14.1927 25.5 12.5 25.5C10.8073 25.5 9.18899 25.1698 7.64509 24.5095C6.10119 23.8491 4.77121 22.9609 3.65513 21.8449C2.53906 20.7288 1.65086 19.3988 0.990513 17.8549C0.330171 16.311 0 14.6927 0 13C0 11.3073 0.330171 9.68899 0.990513 8.14509C1.65086 6.60119 2.53906 5.27121 3.65513 4.15513C4.77121 3.03906 6.10119 2.15086 7.64509 1.49051C9.18899 0.830171 10.8073 0.5 12.5 0.5C14.1927 0.5 15.811 0.830171 17.3549 1.49051C18.8988 2.15086 20.2288 3.03906 21.3449 4.15513C22.4609 5.27121 23.3491 6.60119 24.0095 8.14509C24.6698 9.68899 25 11.3073 25 13Z"
        fill="#0087A1" />
</svg>
