<svg width="26" height="26" viewBox="0 0 26 26" fill="none" xmlns="http://www.w3.org/2000/svg">
    <path
        d="M12.5012 0.5C19.405 0.5 25.0012 6.09625 25.0012 13C25.0012 19.9037 19.405 25.5 12.5012 25.5C10.2922 25.5036 8.12206 24.919 6.21374 23.8063L0.00623829 25.5L1.69624 19.29C0.582605 17.3811 -0.00245227 15.21 0.00123805 13C0.00123805 6.09625 5.59749 0.5 12.5012 0.5ZM8.24124 7.125L7.99124 7.135C7.82939 7.14486 7.67121 7.18738 7.52624 7.26C7.39064 7.33679 7.26686 7.43278 7.15874 7.545C7.00874 7.68625 6.92374 7.80875 6.83249 7.9275C6.37014 8.52863 6.1212 9.26664 6.12499 10.025C6.12749 10.6375 6.28749 11.2338 6.53749 11.7913C7.04874 12.9187 7.88999 14.1125 8.99999 15.2188C9.26749 15.485 9.52999 15.7525 9.81249 16.0013C11.1917 17.2156 12.8353 18.0913 14.6125 18.5588L15.3225 18.6675C15.5537 18.68 15.785 18.6625 16.0175 18.6512C16.3815 18.6325 16.737 18.5339 17.0587 18.3625C17.2224 18.2782 17.3822 18.1864 17.5375 18.0875C17.5375 18.0875 17.5912 18.0525 17.6937 17.975C17.8625 17.85 17.9662 17.7612 18.1062 17.615C18.21 17.5075 18.3 17.3813 18.3687 17.2375C18.4662 17.0338 18.5637 16.645 18.6037 16.3212C18.6337 16.0737 18.625 15.9388 18.6212 15.855C18.6162 15.7213 18.505 15.5825 18.3837 15.5238L17.6562 15.1975C17.6562 15.1975 16.5687 14.7238 15.9037 14.4213C15.8342 14.3909 15.7596 14.3735 15.6837 14.37C15.5982 14.3612 15.5118 14.3708 15.4303 14.3982C15.3488 14.4256 15.2741 14.4701 15.2112 14.5287C15.205 14.5262 15.1212 14.5975 14.2175 15.6925C14.1656 15.7622 14.0942 15.8149 14.0122 15.8438C13.9303 15.8728 13.8416 15.8767 13.7575 15.855C13.6761 15.8332 13.5963 15.8056 13.5187 15.7725C13.3637 15.7075 13.31 15.6825 13.2037 15.6375C12.4863 15.3244 11.8221 14.9014 11.235 14.3838C11.0775 14.2463 10.9312 14.0962 10.7812 13.9513C10.2895 13.4803 9.86089 12.9475 9.50624 12.3663L9.43249 12.2475C9.37952 12.1677 9.33669 12.0816 9.30499 11.9913C9.25749 11.8075 9.38124 11.66 9.38124 11.66C9.38124 11.66 9.68499 11.3275 9.82624 11.1475C9.96374 10.9725 10.08 10.8025 10.155 10.6813C10.3025 10.4438 10.3487 10.2 10.2712 10.0113C9.92124 9.15625 9.55874 8.305 9.18624 7.46C9.11249 7.2925 8.89374 7.1725 8.69499 7.14875C8.62749 7.14125 8.55999 7.13375 8.49249 7.12875C8.32462 7.12041 8.15641 7.12208 7.98874 7.13375L8.23999 7.12375L8.24124 7.125Z"
        fill="#0087A1" />
</svg>
